<svg id="visual" viewBox="0 0 960 300" width="960" height="300" xmlns="http://www.w3.org/2000/svg" xmlns:xlink="http://www.w3.org/1999/xlink" version="1.1"><rect x="0" y="0" width="960" height="300" fill="#32CD32"></rect><path d="M0 129L16 129.3C32 129.7 64 130.3 96 132.7C128 135 160 139 192 141.3C224 143.7 256 144.3 288 147C320 149.7 352 154.3 384 151.5C416 148.7 448 138.3 480 134.8C512 131.3 544 134.7 576 133.3C608 132 640 126 672 124.3C704 122.7 736 125.3 768 124.8C800 124.3 832 120.7 864 124.8C896 129 928 141 944 147L960 153L960 0L944 0C928 0 896 0 864 0C832 0 800 0 768 0C736 0 704 0 672 0C640 0 608 0 576 0C544 0 512 0 480 0C448 0 416 0 384 0C352 0 320 0 288 0C256 0 224 0 192 0C160 0 128 0 96 0C64 0 32 0 16 0L0 0Z" fill="#c0c0c0"></path><path d="M0 110L16 108.5C32 107 64 104 96 106.3C128 108.7 160 116.3 192 115.2C224 114 256 104 288 102.7C320 101.3 352 108.7 384 114.7C416 120.7 448 125.3 480 128.5C512 131.7 544 133.3 576 133.3C608 133.3 640 131.7 672 133.3C704 135 736 140 768 140.5C800 141 832 137 864 131.5C896 126 928 119 944 115.5L960 112L960 0L944 0C928 0 896 0 864 0C832 0 800 0 768 0C736 0 704 0 672 0C640 0 608 0 576 0C544 0 512 0 480 0C448 0 416 0 384 0C352 0 320 0 288 0C256 0 224 0 192 0C160 0 128 0 96 0C64 0 32 0 16 0L0 0Z" fill="#b3b3b3"></path><path d="M0 92L16 94.2C32 96.3 64 100.7 96 104C128 107.3 160 109.7 192 107.8C224 106 256 100 288 93C320 86 352 78 384 77.3C416 76.7 448 83.3 480 92C512 100.7 544 111.3 576 113.5C608 115.7 640 109.3 672 101.8C704 94.3 736 85.7 768 87.8C800 90 832 103 864 102.7C896 102.3 928 88.7 944 81.8L960 75L960 0L944 0C928 0 896 0 864 0C832 0 800 0 768 0C736 0 704 0 672 0C640 0 608 0 576 0C544 0 512 0 480 0C448 0 416 0 384 0C352 0 320 0 288 0C256 0 224 0 192 0C160 0 128 0 96 0C64 0 32 0 16 0L0 0Z" fill="#a6a6a6"></path><path d="M0 67L16 66C32 65 64 63 96 61.2C128 59.3 160 57.7 192 58C224 58.3 256 60.7 288 64.8C320 69 352 75 384 79.7C416 84.3 448 87.7 480 86.3C512 85 544 79 576 75.3C608 71.7 640 70.3 672 73.2C704 76 736 83 768 82.5C800 82 832 74 864 75C896 76 928 86 944 91L960 96L960 0L944 0C928 0 896 0 864 0C832 0 800 0 768 0C736 0 704 0 672 0C640 0 608 0 576 0C544 0 512 0 480 0C448 0 416 0 384 0C352 0 320 0 288 0C256 0 224 0 192 0C160 0 128 0 96 0C64 0 32 0 16 0L0 0Z" fill="#999999"></path><path d="M0 47L16 48.3C32 49.7 64 52.3 96 55.7C128 59 160 63 192 63.2C224 63.3 256 59.7 288 55.5C320 51.3 352 46.7 384 45.7C416 44.7 448 47.3 480 47.5C512 47.7 544 45.3 576 45.3C608 45.3 640 47.7 672 47.5C704 47.3 736 44.7 768 46.5C800 48.3 832 54.7 864 54C896 53.3 928 45.7 944 41.8L960 38L960 0L944 0C928 0 896 0 864 0C832 0 800 0 768 0C736 0 704 0 672 0C640 0 608 0 576 0C544 0 512 0 480 0C448 0 416 0 384 0C352 0 320 0 288 0C256 0 224 0 192 0C160 0 128 0 96 0C64 0 32 0 16 0L0 0Z" fill="#8c8c8c"></path><path d="M0 20L16 20.3C32 20.7 64 21.3 96 21C128 20.7 160 19.3 192 21.7C224 24 256 30 288 34C320 38 352 40 384 40.7C416 41.3 448 40.7 480 40.7C512 40.7 544 41.3 576 41.5C608 41.7 640 41.3 672 39.8C704 38.3 736 35.7 768 32.8C800 30 832 27 864 24.7C896 22.3 928 20.7 944 19.8L960 19L960 0L944 0C928 0 896 0 864 0C832 0 800 0 768 0C736 0 704 0 672 0C640 0 608 0 576 0C544 0 512 0 480 0C448 0 416 0 384 0C352 0 320 0 288 0C256 0 224 0 192 0C160 0 128 0 96 0C64 0 32 0 16 0L0 0Z" fill="#808080"></path></svg>