<svg id="visual" viewBox="0 0 960 300" width="960" height="300" xmlns="http://www.w3.org/2000/svg" xmlns:xlink="http://www.w3.org/1999/xlink" version="1.1"><rect x="0" y="0" width="960" height="300" fill="#FFFF00"></rect><path d="M0 180L16 174.7C32 169.3 64 158.7 96 157C128 155.3 160 162.7 192 167C224 171.3 256 172.7 288 171.7C320 170.7 352 167.3 384 160.3C416 153.3 448 142.7 480 137.8C512 133 544 134 576 137.3C608 140.7 640 146.3 672 144.3C704 142.3 736 132.7 768 130.5C800 128.3 832 133.7 864 140.7C896 147.7 928 156.3 944 160.7L960 165L960 301L944 301C928 301 896 301 864 301C832 301 800 301 768 301C736 301 704 301 672 301C640 301 608 301 576 301C544 301 512 301 480 301C448 301 416 301 384 301C352 301 320 301 288 301C256 301 224 301 192 301C160 301 128 301 96 301C64 301 32 301 16 301L0 301Z" fill="#ffddf4"></path><path d="M0 150L16 152.5C32 155 64 160 96 164.2C128 168.3 160 171.7 192 178.5C224 185.3 256 195.7 288 201.2C320 206.7 352 207.3 384 202.7C416 198 448 188 480 179.2C512 170.3 544 162.7 576 164.8C608 167 640 179 672 182.3C704 185.7 736 180.3 768 180.8C800 181.3 832 187.7 864 189.8C896 192 928 190 944 189L960 188L960 301L944 301C928 301 896 301 864 301C832 301 800 301 768 301C736 301 704 301 672 301C640 301 608 301 576 301C544 301 512 301 480 301C448 301 416 301 384 301C352 301 320 301 288 301C256 301 224 301 192 301C160 301 128 301 96 301C64 301 32 301 16 301L0 301Z" fill="#ffd5f0"></path><path d="M0 222L16 219.5C32 217 64 212 96 205.5C128 199 160 191 192 194.2C224 197.3 256 211.7 288 216.2C320 220.7 352 215.3 384 213C416 210.7 448 211.3 480 207.8C512 204.3 544 196.7 576 194.5C608 192.3 640 195.7 672 200.7C704 205.7 736 212.3 768 213C800 213.7 832 208.3 864 205.2C896 202 928 201 944 200.5L960 200L960 301L944 301C928 301 896 301 864 301C832 301 800 301 768 301C736 301 704 301 672 301C640 301 608 301 576 301C544 301 512 301 480 301C448 301 416 301 384 301C352 301 320 301 288 301C256 301 224 301 192 301C160 301 128 301 96 301C64 301 32 301 16 301L0 301Z" fill="#ffccec"></path><path d="M0 233L16 231.8C32 230.7 64 228.3 96 229.3C128 230.3 160 234.7 192 233.8C224 233 256 227 288 221.7C320 216.3 352 211.7 384 215.5C416 219.3 448 231.7 480 233.7C512 235.7 544 227.3 576 226C608 224.7 640 230.3 672 229C704 227.7 736 219.3 768 215C800 210.7 832 210.3 864 213.2C896 216 928 222 944 225L960 228L960 301L944 301C928 301 896 301 864 301C832 301 800 301 768 301C736 301 704 301 672 301C640 301 608 301 576 301C544 301 512 301 480 301C448 301 416 301 384 301C352 301 320 301 288 301C256 301 224 301 192 301C160 301 128 301 96 301C64 301 32 301 16 301L0 301Z" fill="#ffc4e8"></path><path d="M0 256L16 252.7C32 249.3 64 242.7 96 239.8C128 237 160 238 192 238.3C224 238.7 256 238.3 288 239.3C320 240.3 352 242.7 384 244.8C416 247 448 249 480 251.3C512 253.7 544 256.3 576 255C608 253.7 640 248.3 672 245.2C704 242 736 241 768 239.5C800 238 832 236 864 236C896 236 928 238 944 239L960 240L960 301L944 301C928 301 896 301 864 301C832 301 800 301 768 301C736 301 704 301 672 301C640 301 608 301 576 301C544 301 512 301 480 301C448 301 416 301 384 301C352 301 320 301 288 301C256 301 224 301 192 301C160 301 128 301 96 301C64 301 32 301 16 301L0 301Z" fill="#ffbbe3"></path><path d="M0 267L16 266.8C32 266.7 64 266.3 96 265C128 263.7 160 261.3 192 263.8C224 266.3 256 273.7 288 277.8C320 282 352 283 384 279.3C416 275.7 448 267.3 480 262.3C512 257.3 544 255.7 576 257.7C608 259.7 640 265.3 672 269.8C704 274.3 736 277.7 768 276.2C800 274.7 832 268.3 864 268.7C896 269 928 276 944 279.5L960 283L960 301L944 301C928 301 896 301 864 301C832 301 800 301 768 301C736 301 704 301 672 301C640 301 608 301 576 301C544 301 512 301 480 301C448 301 416 301 384 301C352 301 320 301 288 301C256 301 224 301 192 301C160 301 128 301 96 301C64 301 32 301 16 301L0 301Z" fill="#ffb3de"></path></svg>