<svg id="visual" viewBox="0 0 1380 680" width="1380" height="680" xmlns="http://www.w3.org/2000/svg" xmlns:xlink="http://www.w3.org/1999/xlink" version="1.1"><rect x="0" y="0" width="1380" height="680" fill="#001220"></rect><defs><linearGradient id="grad1_0" x1="50.7%" y1="0%" x2="100%" y2="100%"><stop offset="9.411764705882355%" stop-color="#001220" stop-opacity="1"></stop><stop offset="90.58823529411765%" stop-color="#001220" stop-opacity="1"></stop></linearGradient></defs><defs><linearGradient id="grad2_0" x1="0%" y1="0%" x2="49.3%" y2="100%"><stop offset="9.411764705882355%" stop-color="#001220" stop-opacity="1"></stop><stop offset="90.58823529411765%" stop-color="#001220" stop-opacity="1"></stop></linearGradient></defs><g transform="translate(1380, 0)"><path d="M0 374C-40.8 350.6 -81.6 327.2 -129.7 313.2C-177.9 299.2 -233.5 294.5 -264.5 264.5C-295.4 234.5 -301.8 179.2 -316 130.9C-330.1 82.6 -352.1 41.3 -374 0L0 0Z" fill="#32CD32"></path></g><g transform="translate(0, 680)"><path d="M0 -374C47.5 -366.1 95.1 -358.3 141.6 -341.8C188.1 -325.4 233.7 -300.5 264.5 -264.5C295.2 -228.4 311.3 -181.4 327.1 -135.5C342.8 -89.6 358.4 -44.8 374 0L0 0Z" fill="#32CD32"></path></g></svg>