<svg id="visual" viewBox="0 0 1380 680" width="1380" height="680" xmlns="http://www.w3.org/2000/svg" xmlns:xlink="http://www.w3.org/1999/xlink" version="1.1"><rect x="0" y="0" width="1380" height="680" fill="#001220"></rect><defs><linearGradient id="grad1_0" x1="50.7%" y1="0%" x2="100%" y2="100%"><stop offset="9.411764705882355%" stop-color="#001220" stop-opacity="1"></stop><stop offset="90.58823529411765%" stop-color="#001220" stop-opacity="1"></stop></linearGradient></defs><defs><linearGradient id="grad2_0" x1="0%" y1="0%" x2="49.3%" y2="100%"><stop offset="9.411764705882355%" stop-color="#001220" stop-opacity="1"></stop><stop offset="90.58823529411765%" stop-color="#001220" stop-opacity="1"></stop></linearGradient></defs><g transform="translate(1380, 0)"><path d="M0 374C-55.4 375.2 -110.8 376.3 -143.1 345.5C-175.5 314.7 -184.8 252 -215 215C-245.1 177.9 -296.1 166.6 -326.1 135.1C-356.1 103.5 -365.1 51.8 -374 0L0 0Z" fill="#32CD32"></path></g><g transform="translate(0, 680)"><path d="M0 -374C51.8 -372 103.7 -369.9 143.1 -345.5C182.6 -321.1 209.7 -274.3 235.5 -235.5C261.2 -196.6 285.7 -165.7 308.6 -127.8C331.4 -89.9 352.7 -44.9 374 0L0 0Z" fill="#32CD32"></path></g></svg>