<svg id="visual" viewBox="0 0 1380 680" width="1380" height="680" xmlns="http://www.w3.org/2000/svg" xmlns:xlink="http://www.w3.org/1999/xlink" version="1.1"><rect x="0" y="0" width="1380" height="680" fill="#001220"></rect><defs><linearGradient id="grad1_0" x1="50.7%" y1="0%" x2="100%" y2="100%"><stop offset="9.411764705882355%" stop-color="#001220" stop-opacity="1"></stop><stop offset="90.58823529411765%" stop-color="#001220" stop-opacity="1"></stop></linearGradient></defs><defs><linearGradient id="grad2_0" x1="0%" y1="0%" x2="49.3%" y2="100%"><stop offset="9.411764705882355%" stop-color="#001220" stop-opacity="1"></stop><stop offset="90.58823529411765%" stop-color="#001220" stop-opacity="1"></stop></linearGradient></defs><g transform="translate(1380, 0)"><path d="M0 374C-54.6 375 -109.2 376 -143.1 345.5C-177 315 -190.3 253 -212.8 212.8C-235.4 172.7 -267.2 154.3 -295.6 122.5C-324.1 90.6 -349 45.3 -374 0L0 0Z" fill="#32CD32"></path></g><g transform="translate(0, 680)"><path d="M0 -374C43 -345.8 86 -317.6 121.3 -292.9C156.7 -268.1 184.4 -246.7 224.9 -224.9C265.3 -203 318.5 -180.7 345.5 -143.1C372.5 -105.6 373.3 -52.8 374 0L0 0Z" fill="#32CD32"></path></g></svg>